# File created by Blade
# Date/Time:  Fri Jan 16 19:18:57 2015
# Frame Rate: 120.000 fps
#------------------------------------------------------
:FULLY-SPECIFIED
:DEGREES
830
root 19.945605 35.749905 -21.982945 -167.387984 -2.164552 -178.696256
Spine -26.151365 -2.619853 0.750574
Head 21.925933 -6.545382 11.880431
LeftShoulder -24.471523 -64.831796 76.319505
LeftArm 60.017663 -46.948542 -22.437550
LeftForeArm -62.439568 -0.000000 101.266944
LeftHand 7.804091 -0.000000 -3.674149
LeftHandThumb1 -26.253704 0.000000 33.147579
RightShoulder -14.724299 13.654584 -38.160554
RightArm 68.961178 76.429755 36.191622
RightForeArm 36.282343 -0.000000 84.968138
RightHand 7.356401 0.000000 11.624233
RightHandThumb1 -24.326973 -0.000000 -32.862282
LeftUpLeg -4.311855 8.921178 0.055385
LeftLeg -6.893575 -0.000000 0.000000
LeftFoot -18.821282 25.362641 -14.857156
LeftToeBase 25.296903 -0.000000 -0.000000
RightUpLeg -4.518395 -6.229128 1.499056
RightLeg -3.748394 -0.000000 0.000000
RightFoot -20.516983 -24.681771 19.209883
RightToeBase 22.398738 -0.000000 -0.000000
831
root 19.950312 35.752523 -21.978837 -167.428833 -2.191430 -178.710500
Spine -26.129358 -2.459623 0.711173
Head 22.077751 -6.611922 11.465512
LeftShoulder -24.126420 -64.586171 75.540491
LeftArm 59.581461 -47.209223 -22.246183
LeftForeArm -61.909599 0.000000 100.993745
LeftHand 7.689995 -0.000000 -3.773928
LeftHandThumb1 -26.253704 0.000000 33.147579
RightShoulder -14.545434 13.668963 -38.060044
RightArm 71.883707 76.498830 38.661742
RightForeArm 35.495462 0.000000 84.474406
RightHand 7.479384 -0.000000 11.881129
RightHandThumb1 -24.326973 -0.000000 -32.862282
LeftUpLeg -4.283503 8.910746 0.057155
LeftLeg -6.892354 -0.000000 0.000000
LeftFoot -18.789395 25.347970 -14.903203
LeftToeBase 25.299020 -0.000000 -0.000000
RightUpLeg -4.492421 -6.208813 1.489355
RightLeg -3.724244 -0.000000 0.000000
RightFoot -20.543087 -24.706899 19.188501
RightToeBase 22.501556 -0.000000 -0.000000
832
root 19.955700 35.754426 -21.975616 -167.455931 -2.224133 -178.721543
Spine -26.115157 -2.280202 0.652542
Head 22.175754 -6.705831 11.072493
LeftShoulder -23.816610 -64.283725 74.789302
LeftArm 59.163725 -47.518093 -22.169869
LeftForeArm -61.444104 -0.000000 100.718274
LeftHand 7.566650 0.000000 -3.975313
LeftHandThumb1 -26.253704 0.000000 33.147579
RightShoulder -14.498535 14.096952 -38.249749
RightArm 73.607112 76.084147 40.286813
RightForeArm 34.701086 0.000000 84.216342
RightHand 7.528062 -0.000000 11.950041
RightHandThumb1 -24.326973 -0.000000 -32.862282
LeftUpLeg -4.272506 8.929942 0.057037
LeftLeg -6.884905 -0.000000 0.000000
LeftFoot -18.753873 25.306267 -14.907931
LeftToeBase 25.275396 -0.000000 -0.000000
RightUpLeg -4.477224 -6.222351 1.489648
RightLeg -3.705419 -0.000000 0.000000
RightFoot -20.545735 -24.736757 19.183497
RightToeBase 22.486000 -0.000000 -0.000000
833
root 19.959097 35.756423 -21.970659 -167.482928 -2.257591 -178.736960
Spine -26.117107 -2.081545 0.622505
Head 22.282531 -6.611246 10.752922
LeftShoulder -23.344407 -63.944026 73.775745
LeftArm 58.781145 -47.860357 -22.091444
LeftForeArm -60.850775 0.000000 100.396232
LeftHand 7.517324 -0.000000 -4.219098
LeftHandThumb1 -26.253704 0.000000 33.147579
RightShoulder -14.441115 14.066098 -38.242463
RightArm 76.839199 75.949860 43.220731
RightForeArm 33.775479 -0.000000 83.876092
RightHand 7.532262 -0.000000 11.947114
RightHandThumb1 -24.326973 -0.000000 -32.862282
LeftUpLeg -4.270502 8.960236 0.047249
LeftLeg -6.866788 -0.000000 0.000000
LeftFoot -18.736928 25.241646 -14.941165
LeftToeBase 25.287088 -0.000000 -0.000000
RightUpLeg -4.461336 -6.242671 1.481881
RightLeg -3.689680 -0.000000 0.000000
RightFoot -20.549867 -24.737358 19.199370
RightToeBase 22.460413 -0.000000 -0.000000
834
root 19.964920 35.757976 -21.966595 -167.505169 -2.290827 -178.745537
Spine -26.098712 -1.879286 0.545686
Head 22.335220 -6.732089 10.385603
LeftShoulder -23.046108 -63.628287 73.027742
LeftArm 58.283673 -48.174873 -22.032423
LeftForeArm -60.202441 0.000000 100.132381
LeftHand 7.371349 -0.000000 -4.266111
LeftHandThumb1 -26.253704 0.000000 33.147579
RightShoulder -14.529835 14.610269 -38.496946
RightArm 78.307685 75.319495 44.749180
RightForeArm 32.606661 0.000000 83.736058
RightHand 7.484342 -0.000000 12.000968
RightHandThumb1 -24.326973 -0.000000 -32.862282
LeftUpLeg -4.263510 8.963522 0.053037
LeftLeg -6.858493 -0.000000 0.000000
LeftFoot -18.707947 25.197261 -14.950129
LeftToeBase 25.333526 -0.000000 -0.000000
RightUpLeg -4.449452 -6.257331 1.487210
RightLeg -3.677260 -0.000000 0.000000
RightFoot -20.571172 -24.793058 19.200133
RightToeBase 22.394189 -0.000000 -0.000000
835
root 19.970772 35.760152 -21.962354 -167.545074 -2.335667 -178.759705
Spine -26.064343 -1.674676 0.487201
Head 22.418520 -6.841705 9.947224
LeftShoulder -22.720150 -63.394030 72.226521
LeftArm 57.663016 -48.433353 -21.879446
LeftForeArm -59.500684 -0.000000 99.876532
LeftHand 7.249809 -0.000000 -4.196000
LeftHandThumb1 -26.253704 0.000000 33.147579
RightShoulder -14.546977 14.547615 -38.406300
RightArm 81.380025 75.143867 47.509997
RightForeArm 31.591170 -0.000000 83.452166
RightHand 7.485286 -0.000000 12.033612
RightHandThumb1 -24.326973 -0.000000 -32.862282
LeftUpLeg -4.244034 8.975267 0.055206
LeftLeg -6.846464 -0.000000 0.000000
LeftFoot -18.671842 25.133467 -14.973808
LeftToeBase 25.257383 -0.000000 -0.000000
RightUpLeg -4.415247 -6.273304 1.485700
RightLeg -3.669842 -0.000000 0.000000
RightFoot -20.561825 -24.784435 19.204596
RightToeBase 22.411931 -0.000000 -0.000000
836
root 19.977343 35.761013 -21.957555 -167.567763 -2.380619 -178.758415
Spine -26.028519 -1.477376 0.422564
Head 22.442485 -6.873771 9.660809
LeftShoulder -22.395269 -63.015950 71.402086
LeftArm 57.148224 -48.807142 -21.818239
LeftForeArm -58.882426 0.000000 99.583347
LeftHand 7.114588 -0.000000 -3.926563
LeftHandThumb1 -26.253704 0.000000 33.147579
RightShoulder -14.576349 14.686015 -38.395427
RightArm 84.141518 74.845985 50.127066
RightForeArm 30.264293 -0.000000 83.212147
RightHand 7.425101 0.000000 12.216774
RightHandThumb1 -24.326973 -0.000000 -32.862282
LeftUpLeg -4.235677 8.979197 0.069661
LeftLeg -6.852057 -0.000000 0.000000
LeftFoot -18.640422 25.101932 -14.966567
LeftToeBase 25.257060 -0.000000 -0.000000
RightUpLeg -4.402555 -6.288578 1.503078
RightLeg -3.656832 -0.000000 0.000000
RightFoot -20.576018 -24.811518 19.216202
RightToeBase 22.445992 -0.000000 -0.000000
